<?xml version="1.0" encoding="utf-8"?>
<!-- Generator: Adobe Illustrator 24.0.2, SVG Export Plug-In . SVG Version: 6.00 Build 0)  -->
<svg version="1.1" id="Layer_1" xmlns="http://www.w3.org/2000/svg" xmlns:xlink="http://www.w3.org/1999/xlink" x="0px" y="0px"
	 viewBox="0 0 907.83 909.04" style="enable-background:new 0 0 907.83 909.04;" xml:space="preserve">
<style type="text/css">
	.st0{fill:none;stroke:#000000;stroke-width:0.75;stroke-miterlimit:10;}
	.st1{fill:none;stroke:#000000;stroke-width:29;stroke-miterlimit:10;}
	.st2{stroke:#000000;stroke-width:0.75;stroke-miterlimit:10;}
</style>
<g>
	<g>
		<path d="M335.03,589.42c9.01,9.65,26.36,13.4,38.55,8.35c0,0,46.92-19.46,90.53-18.68c43.14,0.77,88.84,21.38,88.84,21.38
			c12.03,5.43,29.05,1.8,37.81-8.07c0,0,22.33-25.15-0.46-45.35c-29-25.7-75.02-42.76-127.11-43.68
			c-52.09-0.93-98.69,14.48-128.58,39.14C310.11,562.72,335.03,589.42,335.03,589.42z"/>
		<path class="st0" d="M335.03,589.42c9.01,9.65,26.36,13.4,38.55,8.35c0,0,46.92-19.46,90.53-18.68
			c43.14,0.77,88.84,21.38,88.84,21.38c12.03,5.43,29.05,1.8,37.81-8.07c0,0,22.33-25.15-0.46-45.35
			c-29-25.7-75.02-42.76-127.11-43.68c-52.09-0.93-98.69,14.48-128.58,39.14C310.11,562.72,335.03,589.42,335.03,589.42z"/>
	</g>
	<circle class="st1" cx="454.22" cy="454.52" r="438.5"/>
	<circle class="st2" cx="672.79" cy="448.28" r="56.82"/>
	<circle class="st2" cx="245.16" cy="448.6" r="56.82"/>
</g>
</svg>
