<?xml version="1.0" encoding="utf-8"?>
<!-- Generator: Adobe Illustrator 24.0.2, SVG Export Plug-In . SVG Version: 6.00 Build 0)  -->
<svg version="1.1" id="Layer_1" xmlns="http://www.w3.org/2000/svg" xmlns:xlink="http://www.w3.org/1999/xlink" x="0px" y="0px"
	 viewBox="0 0 907.83 909.04" style="enable-background:new 0 0 907.83 909.04;" xml:space="preserve">
<style type="text/css">
	.st0{fill:none;stroke:#000000;stroke-width:29;stroke-miterlimit:10;}
	.st1{fill:none;stroke:#000000;stroke-width:0.75;stroke-miterlimit:10;}
	.st2{stroke:#000000;stroke-width:0.75;stroke-miterlimit:10;}
</style>
<g>
	<circle class="st0" cx="454.22" cy="454.52" r="438.5"/>
	<g>
		<path d="M458.72,591.71c78.64,0,105.67-37.68,105.67-37.68c20.2-28.15,8.37-51.19-26.28-51.19H379.32
			c-34.65,0-46.47,23.04-26.28,51.19C353.04,554.03,380.07,591.71,458.72,591.71z"/>
		<path class="st1" d="M458.72,591.71c78.64,0,105.67-37.68,105.67-37.68c20.2-28.15,8.37-51.19-26.28-51.19H379.32
			c-34.65,0-46.47,23.04-26.28,51.19C353.04,554.03,380.07,591.71,458.72,591.71z"/>
	</g>
	<circle class="st2" cx="671.53" cy="446.02" r="56.82"/>
	<circle class="st2" cx="240.9" cy="446.34" r="56.82"/>
</g>
</svg>
