<?xml version="1.0" encoding="utf-8"?>
<!-- Generator: Adobe Illustrator 24.0.2, SVG Export Plug-In . SVG Version: 6.00 Build 0)  -->
<svg version="1.1" id="Layer_1" xmlns="http://www.w3.org/2000/svg" xmlns:xlink="http://www.w3.org/1999/xlink" x="0px" y="0px"
	 viewBox="0 0 907.83 909.04" style="enable-background:new 0 0 907.83 909.04;" xml:space="preserve">
<style type="text/css">
	.st0{fill:none;stroke:#212529;stroke-width:29;stroke-miterlimit:10;}
	.st1{stroke:#212529;stroke-width:0.75;stroke-miterlimit:10;}
	.st2{fill:none;stroke:#212529;stroke-miterlimit:10;}
</style>
<g>
	<circle class="st0" cx="454.22" cy="454.52" r="438.5"/>
	<circle class="st1" cx="668.53" cy="446.02" r="56.82"/>
	<circle class="st1" cx="240.9" cy="446.34" r="56.82"/>
	<g>
		<path d="M599.73,555.07c0,16.5-13.5,30-30,30H340.7c-16.5,0-30-13.5-30-30v-3.38c0-16.5,13.5-30,30-30h229.04
			c16.5,0,30,13.5,30,30V555.07z"/>
		<path class="st2" d="M599.73,555.07c0,16.5-13.5,30-30,30H340.7c-16.5,0-30-13.5-30-30v-3.38c0-16.5,13.5-30,30-30h229.04
			c16.5,0,30,13.5,30,30V555.07z"/>
	</g>
</g>
</svg>
