<?xml version="1.0" encoding="utf-8"?>
<!-- Generator: Adobe Illustrator 24.0.2, SVG Export Plug-In . SVG Version: 6.00 Build 0)  -->
<svg version="1.1" id="Layer_1" xmlns="http://www.w3.org/2000/svg" xmlns:xlink="http://www.w3.org/1999/xlink" x="0px" y="0px"
	 viewBox="0 0 907.83 909.04" style="enable-background:new 0 0 907.83 909.04;" xml:space="preserve">
<style type="text/css">
	.st0{fill:none;stroke:#000000;stroke-width:29;stroke-miterlimit:10;}
	.st1{fill:none;stroke:#000000;stroke-width:0.75;stroke-miterlimit:10;}


	
</style>
<g>
	<circle class="st0" cx="454.22" cy="454.52" r="438.5"/>
	<g>
		<path d="M454.22,637c95.23,0,140.44-76.71,140.44-76.71c17.59-29.85,3.64-54.27-31.01-54.27H344.79
			c-34.65,0-48.61,24.42-31.01,54.27C313.78,560.29,358.99,637,454.22,637z"/>
		<path class="st1" d="M454.22,637c95.23,0,140.44-76.71,140.44-76.71c17.59-29.85,3.64-54.27-31.01-54.27H344.79
			c-34.65,0-48.61,24.42-31.01,54.27C313.78,560.29,358.99,637,454.22,637z"/>
	</g>
	<g>
		<path class="st3" d="M280.39,491.44c-5.7,6.7-16.22,8-23.39,2.89c0,0-18.02-12.87-37.61-12.87c-11.06,0-15.99,1.86-15.99,1.86
			c-8.23,3.1-18.03-0.87-21.77-8.84c0,0-2.36-5.02-2.36-16.43c0-31.38,25.44-56.82,56.82-56.82s56.82,25.44,56.82,56.82
			C292.91,476.71,280.39,491.44,280.39,491.44z"/>
		<path class="st1" d="M280.39,491.44c-5.7,6.7-16.22,8-23.39,2.89c0,0-18.02-12.87-37.61-12.87c-11.06,0-15.99,1.86-15.99,1.86
			c-8.23,3.1-18.03-0.87-21.77-8.84c0,0-2.36-5.02-2.36-16.43c0-31.38,25.44-56.82,56.82-56.82s56.82,25.44,56.82,56.82
			C292.91,476.71,280.39,491.44,280.39,491.44z"/>
	</g>
	<g>
		<path class="st3" d="M689.17,481.45c-19.83,0-38.15,13.28-38.15,13.28c-7.13,5.16-17.64,3.93-23.37-2.75c0,0-12.73-14.84-12.73-33.62
			c0-31.38,25.44-56.82,56.82-56.82s56.82,25.44,56.82,56.82c0,11.18-2.15,15.85-2.15,15.85c-3.67,8-13.43,12.03-21.68,8.97
			C704.73,483.19,700.07,481.45,689.17,481.45z"/>
		<path class="st1" d="M689.17,481.45c-19.83,0-38.15,13.28-38.15,13.28c-7.13,5.16-17.64,3.93-23.37-2.75
			c0,0-12.73-14.84-12.73-33.62c0-31.38,25.44-56.82,56.82-56.82s56.82,25.44,56.82,56.82c0,11.18-2.15,15.85-2.15,15.85
			c-3.67,8-13.43,12.03-21.68,8.97C704.73,483.19,700.07,481.45,689.17,481.45z"/>
	</g>


</g>
</svg>
